<svg xmlns="http://www.w3.org/2000/svg" width="400" height="401" fill="none" viewBox="0 0 400 401"><g clip-path="url(#clip0)"><rect width="282.843" height="282.843" x="200" y=".163" fill="#FFBA44" rx="80" transform="rotate(45 200 0.162598)"/><path fill="#fff" d="M139.039 178.937C139.017 171.757 144.82 165.92 152 165.899L247.56 165.623C254.74 165.602 260.578 171.406 260.599 178.586L260.837 258.951C260.858 266.131 255.055 271.968 247.876 271.989L152.315 272.265C145.136 272.286 139.298 266.482 139.277 259.302L139.039 178.937Z"/><path fill="#fff" d="M245.799 165.5C245.799 190.63 225.293 211.001 199.997 211.001C174.701 211.001 154.195 190.63 154.195 165.5C154.195 140.371 174.701 120 199.997 120C225.293 120 245.799 140.371 245.799 165.5Z"/><path fill="#fff" d="M245.799 165.5C245.799 190.63 225.293 211.001 199.997 211.001L245.799 211.001L245.799 165.5Z"/><path fill="#fff" d="M199.997 211.001C174.701 211.001 154.195 190.63 154.195 165.5L154.195 211.001L199.997 211.001Z"/><ellipse fill="#FFBA44" rx="28.401" ry="28.298" transform="matrix(1 0 0.00784149 0.999969 200.322 163.492)"/><rect width="15.195" height="96.236" x="192.182" y="160.521" fill="#FFBA44" rx="7.598"/><rect width="27.858" height="12.663" x="194.715" y="218.769" fill="#FFBA44" rx="5.2"/><rect width="27.858" height="12.663" x="194.715" y="244.094" fill="#FFBA44" rx="5.2"/><ellipse fill="#fff" rx="10.13" ry="10.127" transform="matrix(1 0 0.00586924 0.999983 200.408 155.358)"/></g><defs><clipPath id="clip0"><rect width="400" height="400" fill="#fff" transform="translate(0 0.162598)"/></clipPath></defs></svg>